<svg xmlns="http://www.w3.org/2000/svg" version="1.1" xmlns:xlink="http://www.w3.org/1999/xlink" xmlns:svgjs="http://svgjs.dev/svgjs" width="2000" height="1500" viewBox="0 0 2000 1500"><rect width="2000" height="1500" fill="#ffffff"></rect><g transform="matrix(0.75,0,0,0.75,248.16489361702133,293.23948876637553)"><svg viewBox="0 0 376 229" data-background-color="#ffffff" preserveAspectRatio="xMidYMid meet" height="1218" width="2000" xmlns="http://www.w3.org/2000/svg" xmlns:xlink="http://www.w3.org/1999/xlink"><g id="tight-bounds" transform="matrix(1,0,0,1,0.46023999999999887,0.0026349999999979445)"><svg viewBox="0 0 375.07953 228.99473" height="228.99473" width="375.07953"><g><svg></svg></g><g><svg viewBox="0 0 375.07953 228.99473" height="228.99473" width="375.07953"><g transform="matrix(1,0,0,1,-10.22024,-10.86975000000001)"><path d="M10.22 236.33v-225.46h375.08v225.46l-69.798 0 0-6.99h62.808v-211.48h-361.1v211.48l62.808 0 0 6.99z" fill="#398378" fill-rule="nonzero" stroke="none" stroke-width="1" stroke-linecap="butt" stroke-linejoin="miter" stroke-miterlimit="10" stroke-dasharray="" stroke-dashoffset="0" font-family="none" font-weight="none" font-size="none" text-anchor="none" style="mix-blend-mode: normal" data-fill-palette-color="tertiary"></path><g><path d="M101.725 233.346l0.414 2.095c0.5 0.345 1.203 0.517 2.108 0.518v0c0.612 0 1.072-0.177 1.378-0.531 0.305-0.354 0.458-0.776 0.458-1.267v0c0-0.259-0.022-0.477-0.065-0.654-0.043-0.176-0.135-0.376-0.276-0.601-0.143-0.224-0.37-0.448-0.681-0.672-0.31-0.224-0.716-0.461-1.215-0.711v0c-0.586-0.293-1.061-0.569-1.423-0.828-0.362-0.259-0.634-0.526-0.815-0.802-0.181-0.276-0.302-0.539-0.362-0.789-0.06-0.25-0.091-0.56-0.09-0.931v0c0-0.759 0.304-1.348 0.913-1.767 0.607-0.417 1.324-0.626 2.152-0.626v0c1.026 0 2.018 0.259 2.974 0.776v0 2.483c-0.293 0.052-0.539 0.052-0.737 0v0l-0.414-2.237c-0.552-0.302-1.168-0.453-1.849-0.453v0c-0.457 0-0.842 0.136-1.156 0.409-0.316 0.271-0.473 0.652-0.474 1.143v0c0 0.276 0.017 0.491 0.052 0.647 0.034 0.155 0.121 0.338 0.259 0.548 0.138 0.212 0.366 0.423 0.685 0.634 0.319 0.212 0.746 0.447 1.281 0.706v0c1.845 0.897 2.768 1.966 2.767 3.208v0c0 0.879-0.336 1.591-1.009 2.134-0.673 0.543-1.552 0.815-2.638 0.814v0c-1.078 0-2.069-0.254-2.975-0.763v0-2.483c0.293-0.052 0.539-0.052 0.738 0zM111.166 231.523v0 4.151l1.047 0.194c0.009 0.043 0.015 0.082 0.019 0.117 0.005 0.034 0.008 0.073 0.007 0.116v0c0 0.043-0.003 0.088-0.007 0.134-0.003 0.048-0.009 0.098-0.019 0.15v0c-0.543-0.026-1.099-0.039-1.668-0.038v0c-0.198 0-0.437 0.003-0.716 0.007-0.281 0.003-0.603 0.009-0.965 0.019v0c-0.026-0.078-0.039-0.16-0.039-0.246v0c0-0.078 0.013-0.164 0.039-0.259v0l1.021-0.142c0.017-0.241 0.03-0.498 0.039-0.771 0.009-0.271 0.013-0.561 0.013-0.872v0-2.754c0-0.569-0.013-0.992-0.039-1.268v0l-1.021-0.129c-0.017-0.043-0.026-0.116-0.026-0.22v0c0-0.043 0-0.086 0-0.129 0-0.043 0.009-0.091 0.026-0.143v0c0.586-0.034 1.328-0.125 2.224-0.271v0c0.078 0.086 0.121 0.172 0.13 0.258v0c-0.043 0.241-0.065 0.94-0.065 2.096zM109.278 226.905v0c-0.017-0.043-0.026-0.089-0.026-0.137 0-0.047 0-0.091 0-0.134v0c0-0.233 0.097-0.421 0.289-0.564 0.195-0.141 0.435-0.212 0.72-0.212v0c0.267 0 0.485 0.079 0.654 0.238 0.167 0.16 0.251 0.379 0.251 0.654v0c0 0.224-0.097 0.405-0.292 0.543-0.193 0.138-0.441 0.207-0.743 0.207v0c-0.207 0-0.391-0.052-0.551-0.155-0.159-0.103-0.26-0.25-0.302-0.44zM122.469 234.083v-2.366c0-1.198-0.384-1.798-1.151-1.798v0c-0.655 0-1.276 0.453-1.862 1.358v0 4.397l1.048 0.194c0.034 0.138 0.034 0.31 0 0.517v0c-0.543-0.026-1.095-0.039-1.656-0.038v0c-0.397 0-0.957 0.009-1.681 0.026v0c-0.052-0.164-0.052-0.332 0-0.505v0l1.022-0.142c0.034-0.474 0.052-1.022 0.051-1.643v0-2.366c0-1.198-0.384-1.798-1.151-1.798v0c-0.388 0-0.729 0.118-1.021 0.354-0.293 0.238-0.595 0.607-0.906 1.107v0 4.294l1.048 0.194c0.034 0.138 0.034 0.31 0 0.517v0c-0.543-0.026-1.095-0.039-1.656-0.038v0c-0.397 0-0.957 0.009-1.681 0.026v0c-0.052-0.164-0.052-0.332 0-0.505v0l1.022-0.142c0.034-0.474 0.052-1.022 0.052-1.643v0-3.543c0-0.172-0.013-0.332-0.039-0.479v0l-1.022-0.129c-0.034-0.129-0.034-0.293 0-0.492v0c0.578-0.043 1.315-0.134 2.212-0.271v0c0.078 0.086 0.121 0.172 0.129 0.258v0c-0.043 0.224-0.065 0.608-0.065 1.151v0c0.681-0.94 1.449-1.41 2.302-1.409v0c0.448 0 0.858 0.114 1.229 0.341 0.371 0.229 0.608 0.581 0.711 1.056v0c0.69-0.931 1.453-1.397 2.289-1.397v0c0.526 0 0.99 0.155 1.392 0.465 0.4 0.31 0.6 0.789 0.6 1.436v0 4.604l1.048 0.194c0.034 0.138 0.034 0.31 0 0.517v0c-0.543-0.026-1.095-0.039-1.656-0.038v0c-0.397 0-0.957 0.009-1.681 0.026v0c-0.052-0.164-0.052-0.332 0-0.505v0l1.022-0.142c0.034-0.474 0.052-1.022 0.051-1.643zM129.285 235.894v0c0.569 0 1.02-0.276 1.353-0.828 0.331-0.552 0.497-1.384 0.497-2.496v0c0-0.854-0.157-1.505-0.471-1.953-0.316-0.448-0.732-0.673-1.249-0.672v0c-0.759 0-1.414 0.366-1.966 1.099v0 4.022c0.483 0.552 1.095 0.828 1.836 0.828zM126.22 237.562v-6.285c0-0.578-0.013-0.983-0.039-1.216v0l-1.021-0.129c-0.026-0.138-0.026-0.302 0-0.492v0c0.604-0.043 1.345-0.134 2.224-0.271v0c0.078 0.078 0.121 0.164 0.129 0.258v0c-0.043 0.302-0.065 0.621-0.064 0.957v0c0.698-0.81 1.5-1.216 2.405-1.215v0c0.759 0 1.391 0.315 1.896 0.944 0.504 0.629 0.755 1.461 0.756 2.496v0c0 1.198-0.329 2.162-0.988 2.889-0.66 0.729-1.439 1.094-2.336 1.094v0c-0.629 0-1.207-0.203-1.733-0.607v0 3.168l1.306 0.194c0.034 0.138 0.034 0.31 0 0.517v0c-0.543-0.026-1.142-0.039-1.798-0.038v0c-0.483 0-1.086 0.009-1.81 0.026v0c-0.052-0.172-0.052-0.341 0-0.505v0l1.021-0.142c0.034-0.474 0.052-1.022 0.052-1.643zM135.623 228.134v0 7.54l1.047 0.194c0.034 0.138 0.034 0.31 0 0.517v0c-0.543-0.026-1.099-0.039-1.668-0.038v0c-0.397 0-0.957 0.009-1.682 0.026v0c-0.052-0.164-0.052-0.332 0-0.505v0l1.022-0.142c0.034-0.474 0.052-1.022 0.052-1.643v0-7.41l-1.061-0.13c-0.034-0.129-0.034-0.293 0-0.491v0c0.595-0.043 1.336-0.134 2.225-0.272v0c0.078 0.086 0.121 0.172 0.129 0.259v0c-0.043 0.224-0.065 0.923-0.064 2.095zM142.904 232.687v0h-4.061c-0.078 2.199 0.582 3.298 1.979 3.298v0c0.595 0 1.203-0.263 1.823-0.789v0c0.129 0.078 0.228 0.211 0.298 0.401v0c-0.595 0.664-1.349 0.996-2.264 0.995v0c-2.104 0-3.156-1.237-3.155-3.711v0c0-1.173 0.31-2.085 0.931-2.737 0.621-0.65 1.345-0.975 2.173-0.975v0c0.905 0 1.556 0.315 1.953 0.944 0.397 0.629 0.595 1.449 0.594 2.457v0c-0.086 0.069-0.177 0.108-0.271 0.117zM140.602 229.686v0c-0.448 0-0.83 0.233-1.146 0.698-0.314 0.466-0.505 1.061-0.574 1.785v0h1.603c0.638 0 1.095-0.039 1.371-0.116v0c0-0.707-0.108-1.279-0.323-1.715-0.216-0.435-0.526-0.652-0.931-0.652zM149.59 238.248v0l0.828-1.953-2.509-6.182-1.009-0.207c-0.043-0.172-0.043-0.345 0-0.517v0c0.474 0.034 1.052 0.052 1.733 0.051v0c0.612 0 1.194-0.013 1.746-0.038v0c0.052 0.172 0.052 0.341 0 0.504v0l-1.112 0.181 1.229 2.91c0.172 0.422 0.354 1.013 0.543 1.772v0h0.026c0.147-0.517 0.349-1.086 0.608-1.707v0l1.125-3.014-1.009-0.142c-0.034-0.138-0.034-0.31 0-0.517v0c0.474 0.034 0.935 0.052 1.384 0.051v0c0.379 0 0.849-0.013 1.41-0.038v0c0.052 0.172 0.052 0.341 0 0.504v0l-1.022 0.142-3.415 8.355c-0.181 0.431-0.384 0.754-0.607 0.97-0.224 0.216-0.522 0.323-0.893 0.323v0c-0.293 0-0.52-0.036-0.68-0.108-0.159-0.074-0.32-0.215-0.484-0.422v0c0.052-0.474 0.297-0.854 0.737-1.138v0c0.354 0.397 0.655 0.595 0.906 0.595v0c0.216 0 0.371-0.125 0.465-0.375zM160.325 232.687v0h-4.061c-0.078 2.199 0.582 3.298 1.979 3.298v0c0.595 0 1.203-0.263 1.823-0.789v0c0.129 0.078 0.228 0.211 0.298 0.401v0c-0.595 0.664-1.349 0.996-2.264 0.995v0c-2.104 0-3.156-1.237-3.155-3.711v0c0-1.173 0.31-2.085 0.931-2.737 0.621-0.65 1.345-0.975 2.173-0.975v0c0.905 0 1.556 0.315 1.953 0.944 0.397 0.629 0.595 1.449 0.594 2.457v0c-0.086 0.069-0.177 0.108-0.271 0.117zM158.023 229.686v0c-0.448 0-0.829 0.233-1.144 0.698-0.316 0.466-0.508 1.061-0.576 1.785v0h1.603c0.638 0 1.095-0.039 1.371-0.116v0c0-0.707-0.108-1.279-0.323-1.715-0.216-0.435-0.526-0.652-0.931-0.652zM163.61 227.875v0 1.85h1.824c0.017 0.103 0.026 0.181 0.025 0.233v0c0 0.078-0.009 0.168-0.025 0.271v0l-1.824 0.272v3.556c0 0.638 0.059 1.088 0.176 1.351 0.116 0.264 0.298 0.396 0.548 0.395v0c0.224 0 0.573-0.091 1.048-0.271v0c0.086 0.078 0.147 0.224 0.181 0.44v0c-0.259 0.155-0.454 0.269-0.587 0.341-0.135 0.074-0.303 0.14-0.505 0.197-0.203 0.055-0.417 0.083-0.641 0.082v0c-0.431 0-0.782-0.166-1.053-0.499-0.272-0.331-0.409-0.837-0.409-1.518v0-4.229l-0.905-0.117c-0.017-0.086-0.026-0.16-0.026-0.22v0c0-0.069 0.009-0.164 0.026-0.284v0c0.241-0.043 0.451-0.119 0.629-0.228 0.176-0.107 0.324-0.258 0.444-0.452 0.121-0.193 0.214-0.366 0.28-0.518 0.064-0.15 0.143-0.367 0.238-0.652v0c0.078-0.026 0.172-0.039 0.284-0.038v0c0.103 0 0.194 0.013 0.272 0.038zM170.684 234.614v0c0 0.448 0.082 0.765 0.246 0.949 0.164 0.186 0.422 0.279 0.776 0.279v0c0.259 0 0.546-0.08 0.861-0.24 0.314-0.159 0.604-0.389 0.872-0.691v0-2.018c-0.888 0.052-1.569 0.209-2.043 0.471-0.474 0.264-0.711 0.68-0.712 1.25zM173.439 232.428v0-0.66c0-0.733-0.084-1.266-0.251-1.598-0.169-0.331-0.447-0.497-0.835-0.497v0c-0.397 0-0.716 0.127-0.957 0.38-0.241 0.255-0.405 0.689-0.492 1.301v0c-0.276 0.06-0.479 0.091-0.608 0.091v0c-0.336 0-0.535-0.121-0.595-0.362v0c0-0.586 0.254-1.052 0.764-1.397 0.509-0.345 1.142-0.517 1.901-0.517v0c0.836 0 1.43 0.17 1.779 0.509 0.348 0.341 0.522 0.952 0.523 1.832v0 3.647c0 0.216 0.013 0.401 0.039 0.556v0l1.021 0.129c0.034 0.129 0.034 0.293 0 0.492v0c-0.612 0.026-1.263 0.086-1.953 0.181v0c-0.069-0.069-0.112-0.155-0.129-0.259v0l-0.065-0.892c-0.716 0.819-1.513 1.229-2.392 1.228v0c-0.543 0-0.967-0.155-1.273-0.465-0.307-0.31-0.46-0.729-0.46-1.255v0c0-0.793 0.36-1.392 1.081-1.797 0.719-0.405 1.686-0.621 2.902-0.647zM181.807 232.687v0h-4.061c-0.078 2.199 0.582 3.298 1.979 3.298v0c0.595 0 1.203-0.263 1.823-0.789v0c0.129 0.078 0.228 0.211 0.298 0.401v0c-0.595 0.664-1.349 0.996-2.264 0.995v0c-2.104 0-3.156-1.237-3.155-3.711v0c0-1.173 0.31-2.085 0.931-2.737 0.621-0.65 1.345-0.975 2.173-0.975v0c0.905 0 1.556 0.315 1.953 0.944 0.397 0.629 0.595 1.449 0.595 2.457v0c-0.086 0.069-0.177 0.108-0.272 0.117zM179.505 229.686v0c-0.448 0-0.829 0.233-1.143 0.698-0.316 0.466-0.508 1.061-0.577 1.785v0h1.603c0.638 0 1.095-0.039 1.371-0.116v0c0-0.707-0.108-1.279-0.323-1.715-0.216-0.435-0.526-0.652-0.931-0.652zM185.506 236.023v0c0.466 0 0.81-0.108 1.034-0.323 0.224-0.216 0.336-0.466 0.337-0.75v0c0-0.164-0.026-0.315-0.078-0.453-0.052-0.138-0.135-0.272-0.251-0.401-0.117-0.129-0.271-0.257-0.46-0.383-0.19-0.124-0.427-0.26-0.712-0.406v0c-0.354-0.181-0.657-0.354-0.91-0.517-0.255-0.164-0.465-0.336-0.629-0.517-0.164-0.181-0.286-0.375-0.367-0.582-0.083-0.207-0.124-0.44-0.124-0.699v0c0-0.31 0.056-0.58 0.168-0.809 0.112-0.228 0.27-0.417 0.473-0.569 0.202-0.15 0.441-0.262 0.717-0.337 0.276-0.072 0.582-0.109 0.918-0.108v0c0.673 0 1.328 0.164 1.966 0.491v0 1.656h-0.608l-0.284-1.397c-0.379-0.181-0.78-0.272-1.203-0.272v0c-0.707 0-1.061 0.289-1.061 0.867v0c0 0.31 0.116 0.595 0.35 0.853 0.233 0.259 0.608 0.517 1.125 0.776v0c0.354 0.181 0.664 0.354 0.931 0.518 0.267 0.164 0.49 0.336 0.667 0.517 0.176 0.181 0.31 0.377 0.401 0.587 0.09 0.212 0.135 0.452 0.135 0.719v0c0 0.302-0.065 0.582-0.194 0.841-0.129 0.259-0.31 0.48-0.543 0.665-0.233 0.186-0.513 0.334-0.841 0.442-0.328 0.107-0.69 0.16-1.087 0.16v0c-0.767 0-1.487-0.164-2.159-0.491v0-1.656h0.607l0.285 1.281c0.44 0.198 0.905 0.297 1.397 0.297zM191.041 227.875v0 1.85h1.824c0.017 0.103 0.026 0.181 0.026 0.233v0c0 0.078-0.009 0.168-0.026 0.271v0l-1.824 0.272v3.556c0 0.638 0.059 1.088 0.176 1.351 0.116 0.264 0.298 0.396 0.548 0.395v0c0.224 0 0.573-0.091 1.048-0.271v0c0.086 0.078 0.147 0.224 0.181 0.44v0c-0.259 0.155-0.454 0.269-0.587 0.341-0.135 0.074-0.303 0.14-0.504 0.197-0.203 0.055-0.417 0.083-0.642 0.082v0c-0.431 0-0.782-0.166-1.053-0.499-0.272-0.331-0.409-0.837-0.408-1.518v0-4.229l-0.906-0.117c-0.017-0.086-0.026-0.16-0.026-0.22v0c0-0.069 0.009-0.164 0.026-0.284v0c0.241-0.043 0.451-0.119 0.629-0.228 0.176-0.107 0.324-0.258 0.445-0.452 0.121-0.193 0.214-0.366 0.279-0.518 0.064-0.15 0.143-0.367 0.238-0.652v0c0.078-0.026 0.172-0.039 0.285-0.038v0c0.103 0 0.194 0.013 0.271 0.038zM194.507 234.083v-6.143c0-0.569-0.013-0.992-0.039-1.267v0l-1.021-0.13c-0.034-0.129-0.034-0.293 0-0.491v0c0.578-0.043 1.315-0.134 2.211-0.272v0c0.078 0.086 0.121 0.172 0.13 0.259v0c-0.043 0.224-0.065 0.923-0.065 2.095v0 2.444c0.638-0.879 1.405-1.319 2.302-1.319v0c0.535 0 0.992 0.134 1.371 0.401 0.379 0.267 0.569 0.724 0.569 1.371v0 4.643l1.048 0.194c0.034 0.138 0.034 0.31 0 0.517v0c-0.543-0.026-1.095-0.039-1.656-0.038v0c-0.397 0-0.957 0.009-1.681 0.026v0c-0.052-0.164-0.052-0.332 0-0.505v0l1.022-0.142c0.034-0.474 0.052-1.022 0.051-1.643v0-2.405c0-0.604-0.075-1.039-0.225-1.306-0.152-0.267-0.426-0.401-0.822-0.401v0c-0.328 0-0.67 0.121-1.027 0.362-0.359 0.241-0.676 0.591-0.952 1.047v0 4.294l1.048 0.194c0.034 0.138 0.034 0.31 0 0.517v0c-0.543-0.026-1.095-0.039-1.656-0.038v0c-0.397 0-0.957 0.009-1.681 0.026v0c-0.052-0.164-0.052-0.332 0-0.505v0l1.022-0.142c0.034-0.474 0.052-1.022 0.051-1.643zM207.182 232.687v0h-4.061c-0.078 2.199 0.582 3.298 1.979 3.298v0c0.595 0 1.203-0.263 1.823-0.789v0c0.129 0.078 0.228 0.211 0.298 0.401v0c-0.595 0.664-1.349 0.996-2.264 0.995v0c-2.104 0-3.156-1.237-3.155-3.711v0c0-1.173 0.31-2.085 0.931-2.737 0.621-0.65 1.345-0.975 2.173-0.975v0c0.905 0 1.556 0.315 1.952 0.944 0.397 0.629 0.595 1.449 0.595 2.457v0c-0.086 0.069-0.177 0.108-0.271 0.117zM204.88 229.686v0c-0.448 0-0.829 0.233-1.144 0.698-0.316 0.466-0.508 1.061-0.576 1.785v0h1.603c0.638 0 1.095-0.039 1.371-0.116v0c0-0.707-0.108-1.279-0.323-1.715-0.216-0.435-0.526-0.652-0.931-0.652zM210.467 227.875v0 1.85h1.823c0.017 0.103 0.026 0.181 0.026 0.233v0c0 0.078-0.009 0.168-0.026 0.271v0l-1.823 0.272v3.556c0 0.638 0.059 1.088 0.176 1.351 0.116 0.264 0.298 0.396 0.548 0.395v0c0.224 0 0.573-0.091 1.048-0.271v0c0.086 0.078 0.147 0.224 0.181 0.44v0c-0.259 0.155-0.454 0.269-0.587 0.341-0.135 0.074-0.303 0.14-0.505 0.197-0.203 0.055-0.417 0.083-0.641 0.082v0c-0.431 0-0.782-0.166-1.053-0.499-0.272-0.331-0.409-0.837-0.409-1.518v0-4.229l-0.905-0.117c-0.017-0.086-0.026-0.16-0.026-0.22v0c0-0.069 0.009-0.164 0.026-0.284v0c0.241-0.043 0.451-0.119 0.628-0.228 0.176-0.107 0.324-0.258 0.445-0.452 0.121-0.193 0.214-0.366 0.28-0.518 0.064-0.15 0.143-0.367 0.238-0.652v0c0.078-0.026 0.172-0.039 0.284-0.038v0c0.103 0 0.194 0.013 0.272 0.038zM215.304 231.523v0 4.151l1.047 0.194c0.009 0.043 0.016 0.082 0.021 0.117 0.003 0.034 0.005 0.073 0.005 0.116v0c0 0.043-0.002 0.088-0.005 0.134-0.005 0.048-0.012 0.098-0.021 0.15v0c-0.543-0.026-1.099-0.039-1.668-0.038v0c-0.198 0-0.437 0.003-0.716 0.007-0.281 0.003-0.603 0.009-0.965 0.019v0c-0.026-0.078-0.039-0.16-0.039-0.246v0c0-0.078 0.013-0.164 0.039-0.259v0l1.021-0.142c0.017-0.241 0.03-0.498 0.039-0.771 0.009-0.271 0.013-0.561 0.013-0.872v0-2.754c0-0.569-0.013-0.992-0.039-1.268v0l-1.021-0.129c-0.017-0.043-0.026-0.116-0.026-0.22v0c0-0.043 0-0.086 0-0.129 0-0.043 0.009-0.091 0.026-0.143v0c0.586-0.034 1.328-0.125 2.224-0.271v0c0.078 0.086 0.121 0.172 0.13 0.258v0c-0.043 0.241-0.065 0.94-0.065 2.096zM213.416 226.905v0c-0.017-0.043-0.026-0.089-0.026-0.137 0-0.047 0-0.091 0-0.134v0c0-0.233 0.097-0.421 0.292-0.564 0.193-0.141 0.432-0.212 0.717-0.212v0c0.267 0 0.485 0.079 0.654 0.238 0.167 0.16 0.251 0.379 0.251 0.654v0c0 0.224-0.097 0.405-0.29 0.543-0.195 0.138-0.443 0.207-0.745 0.207v0c-0.207 0-0.39-0.052-0.548-0.155-0.16-0.103-0.262-0.25-0.305-0.44zM222.805 231.083v0c-0.181 0.19-0.608 0.28-1.28 0.271v0c-0.138-1.086-0.53-1.63-1.177-1.629v0c-0.509 0-0.94 0.293-1.294 0.879-0.354 0.586-0.53 1.358-0.53 2.315v0c0 0.983 0.155 1.74 0.466 2.271 0.31 0.529 0.776 0.794 1.397 0.795v0c0.655 0 1.298-0.267 1.927-0.802v0c0.129 0.078 0.228 0.211 0.297 0.401v0c-0.629 0.673-1.418 1.009-2.367 1.008v0c-0.905 0-1.647-0.313-2.224-0.939-0.578-0.624-0.867-1.544-0.867-2.759v0c0-1.164 0.322-2.076 0.965-2.737 0.641-0.659 1.376-0.988 2.204-0.988v0c0.655 0 1.233 0.164 1.733 0.491 0.5 0.328 0.75 0.802 0.75 1.423zM236.32 230.048l-2.625 6.855h-0.272l-1.707-4.747-1.772 4.747h-0.271l-2.484-6.842-0.814-0.155c-0.034-0.138-0.034-0.31 0-0.517v0c0.474 0.034 0.987 0.052 1.539 0.051v0c0.491 0 1.013-0.013 1.565-0.038v0c0.052 0.172 0.052 0.341 0 0.504v0l-0.996 0.155 1.034 2.936c0.302 0.862 0.5 1.487 0.595 1.875v0h0.026c0.207-0.742 0.41-1.345 0.608-1.81v0l0.66-1.772-0.44-1.229-0.815-0.155c-0.034-0.138-0.034-0.31 0-0.517v0c0.474 0.034 0.987 0.052 1.539 0.051v0c0.491 0 1.013-0.013 1.565-0.038v0c0.052 0.172 0.052 0.341 0 0.504v0l-0.996 0.155 0.996 2.936c0.302 0.862 0.5 1.487 0.595 1.875v0h0.026c0.207-0.742 0.41-1.345 0.608-1.81v0l1.125-3.053-1.009-0.103c-0.034-0.138-0.034-0.31 0-0.517v0c0.474 0.034 0.918 0.052 1.332 0.051v0c0.354 0 0.806-0.013 1.358-0.038v0c0.052 0.172 0.052 0.341 0 0.504v0zM243.046 232.687v0h-4.061c-0.078 2.199 0.582 3.298 1.978 3.298v0c0.595 0 1.203-0.263 1.824-0.789v0c0.129 0.078 0.228 0.211 0.297 0.401v0c-0.595 0.664-1.349 0.996-2.263 0.995v0c-2.104 0-3.156-1.237-3.156-3.711v0c0-1.173 0.31-2.085 0.932-2.737 0.621-0.65 1.345-0.975 2.172-0.975v0c0.905 0 1.556 0.315 1.953 0.944 0.397 0.629 0.595 1.449 0.595 2.457v0c-0.086 0.069-0.177 0.108-0.271 0.117zM240.743 229.686v0c-0.448 0-0.829 0.233-1.143 0.698-0.316 0.466-0.508 1.061-0.577 1.785v0h1.604c0.638 0 1.095-0.039 1.371-0.116v0c0-0.707-0.108-1.279-0.323-1.715-0.216-0.435-0.526-0.652-0.932-0.652zM246.098 228.134v2.108c0.716-0.716 1.496-1.073 2.341-1.073v0c0.836 0 1.49 0.315 1.96 0.944 0.469 0.629 0.704 1.479 0.704 2.548v0c0 1.216-0.328 2.175-0.983 2.876-0.655 0.704-1.47 1.055-2.444 1.055v0c-0.845 0-1.509-0.302-1.992-0.905v0l-0.272 0.88c-0.164 0.026-0.302 0.026-0.414 0v0l-0.129-1.423v-8.471l-1.06-0.13c-0.034-0.129-0.034-0.293 0-0.491v0c0.595-0.043 1.336-0.134 2.224-0.272v0c0.078 0.086 0.121 0.172 0.129 0.259v0c-0.043 0.224-0.065 0.923-0.064 2.095zM247.96 235.881v0c0.535 0 0.976-0.248 1.325-0.745 0.35-0.495 0.525-1.195 0.525-2.1v0c0-0.181-0.004-0.319-0.013-0.414v0c0-0.854-0.171-1.513-0.512-1.979-0.34-0.466-0.768-0.698-1.286-0.698v0c-0.302 0-0.629 0.097-0.983 0.289-0.354 0.195-0.66 0.46-0.918 0.797v0 3.958c0.293 0.336 0.573 0.569 0.84 0.698 0.267 0.129 0.608 0.194 1.022 0.194zM261.656 228.134v6.363c0 0.578 0.013 0.983 0.039 1.216v0l1.022 0.129c0.026 0.138 0.026 0.302 0 0.492v0c-0.629 0.026-1.285 0.086-1.966 0.181v0c-0.06-0.06-0.103-0.142-0.129-0.246v0l-0.065-0.828c-0.302 0.354-0.677 0.635-1.125 0.846-0.448 0.212-0.918 0.318-1.41 0.318v0c-0.75 0-1.371-0.313-1.862-0.939-0.491-0.624-0.737-1.458-0.737-2.501v0c0-1.207 0.321-2.175 0.962-2.905 0.643-0.728 1.413-1.092 2.31-1.091v0c0.707 0 1.285 0.168 1.733 0.504v0-1.733c0-0.569-0.013-0.992-0.039-1.267v0l-1.022-0.13c-0.034-0.129-0.034-0.293 0-0.491v0c0.595-0.043 1.336-0.134 2.225-0.272v0c0.078 0.086 0.121 0.172 0.129 0.259v0c-0.043 0.224-0.065 0.923-0.065 2.095zM258.591 229.867v0c-0.56 0-1.009 0.295-1.345 0.885-0.336 0.591-0.504 1.409-0.504 2.452v0c0 0.854 0.157 1.505 0.471 1.953 0.316 0.448 0.732 0.673 1.249 0.672v0c0.31 0 0.651-0.097 1.022-0.292 0.371-0.193 0.685-0.462 0.944-0.807v0-4.139c-0.422-0.483-1.035-0.724-1.837-0.724zM268.899 232.687v0h-4.061c-0.078 2.199 0.582 3.298 1.979 3.298v0c0.595 0 1.203-0.263 1.823-0.789v0c0.129 0.078 0.228 0.211 0.298 0.401v0c-0.595 0.664-1.349 0.996-2.264 0.995v0c-2.104 0-3.156-1.237-3.155-3.711v0c0-1.173 0.31-2.085 0.931-2.737 0.621-0.65 1.345-0.975 2.173-0.975v0c0.905 0 1.556 0.315 1.953 0.944 0.397 0.629 0.595 1.449 0.595 2.457v0c-0.086 0.069-0.177 0.108-0.272 0.117zM266.597 229.686v0c-0.448 0-0.83 0.233-1.146 0.698-0.314 0.466-0.505 1.061-0.574 1.785v0h1.603c0.638 0 1.095-0.039 1.371-0.116v0c0-0.707-0.108-1.279-0.323-1.715-0.216-0.435-0.526-0.652-0.931-0.652zM272.598 236.023v0c0.466 0 0.81-0.108 1.035-0.323 0.224-0.216 0.336-0.466 0.336-0.75v0c0-0.164-0.026-0.315-0.078-0.453-0.052-0.138-0.136-0.272-0.253-0.401-0.116-0.129-0.268-0.257-0.458-0.383-0.19-0.124-0.427-0.26-0.711-0.406v0c-0.354-0.181-0.657-0.354-0.911-0.517-0.255-0.164-0.465-0.336-0.629-0.517-0.164-0.181-0.287-0.375-0.369-0.582-0.081-0.207-0.122-0.44-0.122-0.699v0c0-0.31 0.056-0.58 0.168-0.809 0.112-0.228 0.269-0.417 0.471-0.569 0.203-0.15 0.443-0.262 0.719-0.337 0.276-0.072 0.582-0.109 0.918-0.108v0c0.673 0 1.328 0.164 1.966 0.491v0 1.656h-0.608l-0.284-1.397c-0.379-0.181-0.78-0.272-1.203-0.272v0c-0.707 0-1.061 0.289-1.061 0.867v0c0 0.31 0.116 0.595 0.35 0.853 0.233 0.259 0.608 0.517 1.125 0.776v0c0.354 0.181 0.664 0.354 0.931 0.518 0.267 0.164 0.49 0.336 0.667 0.517 0.176 0.181 0.309 0.377 0.399 0.587 0.091 0.212 0.137 0.452 0.137 0.719v0c0 0.302-0.065 0.582-0.194 0.841-0.129 0.259-0.31 0.48-0.543 0.665-0.233 0.186-0.513 0.334-0.841 0.442-0.328 0.107-0.69 0.16-1.086 0.16v0c-0.767 0-1.487-0.164-2.16-0.491v0-1.656h0.608l0.284 1.281c0.44 0.198 0.905 0.297 1.397 0.297zM278.366 231.523v0 4.151l1.048 0.194c0.009 0.043 0.015 0.082 0.018 0.117 0.005 0.034 0.008 0.073 0.008 0.116v0c0 0.043-0.003 0.088-0.008 0.134-0.003 0.048-0.009 0.098-0.018 0.15v0c-0.543-0.026-1.099-0.039-1.669-0.038v0c-0.198 0-0.438 0.003-0.719 0.007-0.279 0.003-0.6 0.009-0.962 0.019v0c-0.026-0.078-0.039-0.16-0.039-0.246v0c0-0.078 0.013-0.164 0.039-0.259v0l1.022-0.142c0.017-0.241 0.03-0.498 0.038-0.771 0.009-0.271 0.013-0.561 0.013-0.872v0-2.754c0-0.569-0.013-0.992-0.038-1.268v0l-1.022-0.129c-0.017-0.043-0.026-0.116-0.026-0.22v0c0-0.043 0-0.086 0-0.129 0-0.043 0.009-0.091 0.026-0.143v0c0.586-0.034 1.328-0.125 2.224-0.271v0c0.078 0.086 0.121 0.172 0.13 0.258v0c-0.043 0.241-0.065 0.94-0.065 2.096zM276.478 226.905v0c-0.017-0.043-0.026-0.089-0.026-0.137 0-0.047 0-0.091 0-0.134v0c0-0.233 0.097-0.421 0.29-0.564 0.195-0.141 0.435-0.212 0.719-0.212v0c0.267 0 0.485 0.079 0.652 0.238 0.169 0.16 0.253 0.379 0.253 0.654v0c0 0.224-0.097 0.405-0.292 0.543-0.193 0.138-0.441 0.207-0.743 0.207v0c-0.207 0-0.391-0.052-0.551-0.155-0.159-0.103-0.26-0.25-0.302-0.44zM281.237 236.476v0c0.078 0.034 0.142 0.108 0.194 0.22v0c-0.285 0.233-0.427 0.582-0.427 1.047v0c0 0.414 0.19 0.746 0.569 0.996 0.379 0.25 0.871 0.375 1.475 0.375v0c0.621 0 1.138-0.114 1.552-0.341 0.414-0.229 0.621-0.551 0.621-0.965v0c0-0.448-0.082-0.778-0.246-0.988-0.164-0.212-0.491-0.34-0.983-0.383v0l-2.419-0.22c-0.267-0.034-0.49-0.175-0.667-0.421-0.176-0.245-0.264-0.484-0.264-0.717v0l0.867-1.435c-0.397-0.224-0.696-0.522-0.898-0.893-0.203-0.371-0.305-0.75-0.305-1.138v0c0-0.733 0.272-1.323 0.815-1.772 0.543-0.448 1.168-0.673 1.875-0.672v0c0.681 0 1.28 0.181 1.798 0.543v0c0.043-1.181 0.483-1.793 1.319-1.837v0c0.224 0.052 0.336 0.237 0.336 0.557v0c0 0.172-0.017 0.362-0.051 0.569v0c-0.336 0.026-0.612 0.135-0.828 0.328-0.216 0.195-0.371 0.417-0.466 0.667v0c0.431 0.431 0.647 0.97 0.647 1.617v0c0 0.681-0.276 1.248-0.828 1.7-0.552 0.454-1.194 0.68-1.927 0.68v0c-0.388 0-0.737-0.052-1.047-0.155v0l-0.44 1.151 3.22 0.323c0.5 0.06 0.881 0.243 1.143 0.548 0.264 0.307 0.396 0.706 0.396 1.198v0c0 0.862-0.31 1.524-0.931 1.987-0.621 0.46-1.461 0.691-2.522 0.69v0c-0.879 0-1.565-0.16-2.056-0.478-0.491-0.319-0.737-0.746-0.738-1.281v0c0-0.362 0.116-0.683 0.35-0.962 0.233-0.281 0.522-0.46 0.866-0.538zM281.47 231.613v0c0 0.5 0.14 0.927 0.419 1.281 0.281 0.354 0.654 0.53 1.12 0.53v0c0.457 0 0.832-0.175 1.125-0.525 0.293-0.348 0.44-0.777 0.44-1.286v0c0-0.552-0.145-1.011-0.435-1.379-0.288-0.366-0.665-0.548-1.13-0.548v0c-0.44 0-0.806 0.185-1.099 0.556-0.293 0.371-0.44 0.828-0.44 1.371zM292.23 234.083v-2.366c0-0.664-0.089-1.129-0.266-1.397-0.176-0.267-0.471-0.401-0.885-0.401v0c-0.638 0-1.28 0.479-1.927 1.435v0 4.32l1.048 0.194c0.034 0.138 0.034 0.31 0 0.517v0c-0.543-0.026-1.099-0.039-1.668-0.038v0c-0.397 0-0.957 0.009-1.682 0.026v0c-0.052-0.164-0.052-0.332 0-0.505v0l1.022-0.142c0.034-0.474 0.052-1.022 0.052-1.643v0-3.543c0-0.172-0.013-0.332-0.039-0.479v0l-1.022-0.129c-0.034-0.129-0.034-0.293 0-0.492v0c0.595-0.043 1.336-0.134 2.225-0.271v0c0.078 0.086 0.121 0.172 0.129 0.258v0c-0.043 0.224-0.065 0.608-0.065 1.151v0c0.681-0.94 1.449-1.41 2.302-1.409v0c1.336 0 2.005 0.634 2.005 1.901v0 4.604l1.048 0.194c0.034 0.138 0.034 0.31 0 0.517v0c-0.543-0.026-1.099-0.039-1.669-0.038v0c-0.397 0-0.957 0.009-1.681 0.026v0c-0.052-0.164-0.052-0.332 0-0.505v0l1.022-0.142c0.034-0.474 0.052-1.022 0.051-1.643z" fill="#398378" fill-rule="nonzero" stroke="none" stroke-width="1" stroke-linecap="butt" stroke-linejoin="miter" stroke-miterlimit="10" stroke-dasharray="" stroke-dashoffset="0" font-family="none" font-weight="none" font-size="none" text-anchor="none" style="mix-blend-mode: normal" data-fill-palette-color="secondary" id="text-1"></path></g></g><g transform="matrix(1,0,0,1,29.33176499999999,75.74253709302326)"><svg viewBox="0 0 316.416 77.50965581395349" height="77.50965581395349" width="316.416"><g><svg viewBox="0 0 316.416 77.50965581395349" height="77.50965581395349" width="316.416"><g><svg viewBox="0 0 316.416 77.50965581395349" height="77.50965581395349" width="316.416"><g><svg viewBox="0 0 316.416 77.50965581395349" height="77.50965581395349" width="316.416"><g id="textblocktransform"><svg viewBox="0 0 316.416 77.50965581395349" height="77.50965581395349" width="316.416" id="textblock"><g><svg viewBox="0 0 316.416 77.50965581395349" height="77.50965581395349" width="316.416"><g transform="matrix(1,0,0,1,0,0)"><svg width="316.416" viewBox="1.46 -29.3 157.45999999999998 38.58" height="77.50965581395349" data-palette-color="#398378"><path d="M38.13-28.03L38.13-29.3 30.32-29.3 19.78-5.42 8.45-29.3 1.46-29.3 1.46-28.03 5.37-28.03 5.37-1.27 1.46-1.27 1.46 0 11.23 0Q11.23-1.07 10.45-1.22L10.45-1.22Q10.21-1.27 9.96-1.27L9.96-1.27 7.32-1.27 7.32-22.27 18.02 0.24 19.04 0.24 30.32-24.9 30.32-1.27 26.42-1.27 26.42 0 38.13 0Q38.13-1.07 37.35-1.22L37.35-1.22Q37.11-1.27 36.87-1.27L36.87-1.27 34.23-1.27 34.23-28.03 38.13-28.03ZM44.63 7.76L44.63 7.76Q43.85 7.76 43.45 6.59L43.45 6.59Q42.92 5.13 42.43 4.79L42.43 4.79Q41.99 4.49 41.4 4.49L41.4 4.49Q39.84 4.49 39.6 5.86L39.6 5.86Q39.55 6.05 39.55 6.2L39.55 6.2Q39.55 8.06 41.7 8.89L41.7 8.89Q42.67 9.28 43.75 9.28L43.75 9.28Q47.6 9.28 50.44 4.54L50.44 4.54Q51.61 2.64 52.68 0L52.68 0 59.91-17.82Q60.4-19.19 60.98-19.38L60.98-19.38Q61.33-19.48 61.77-19.48L61.77-19.48Q62.74-19.48 62.89-20.02L62.89-20.02Q62.99-20.31 62.99-20.75L62.99-20.75 55.56-20.75 55.56-19.48 59.13-19.48 52.88-3.86 46.19-19.48 49.46-19.48 49.46-20.75 39.94-20.75 39.94-19.48 42.33-19.48 51.12 0Q48.39 6.45 45.99 7.47L45.99 7.47Q45.31 7.76 44.63 7.76ZM65.18 0L86.57 0 86.81-9.77 85.83-9.77 85-6.49Q83.83-2 81.1-1.37L81.1-1.37Q80.51-1.27 79.98-1.27L79.98-1.27 73.29-1.27 73.29-28.03 77.39-28.03 77.39-29.3 65.18-29.3 65.18-28.03 69.09-28.03 69.09-1.27 65.18-1.27 65.18 0ZM93.4-10.4L93.4-10.4Q93.4-17.97 97.55-19.63L97.55-19.63Q98.63-20.02 99.8-20.02L99.8-20.02Q105.22-20.02 106.1-13.18L106.1-13.18Q106.24-12.01 106.24-10.6L106.24-10.6Q106.24-2.39 101.75-0.98L101.75-0.98Q100.87-0.73 99.94-0.73L99.94-0.73Q95.01-0.73 93.74-6.59L93.74-6.59Q93.4-8.3 93.4-10.4ZM99.94-21.24L99.94-21.24Q95.26-21.24 92.13-18.02L92.13-18.02Q89.25-15.04 89.25-10.6L89.25-10.6Q89.25-4.44 93.74-1.37L93.74-1.37Q96.48 0.49 99.8 0.49L99.8 0.49Q104.48 0.49 107.56-2.83L107.56-2.83Q110.39-5.86 110.39-10.4L110.39-10.4Q110.39-16.55 105.85-19.53L105.85-19.53Q103.17-21.24 99.94-21.24ZM118.69-13.53L118.69-13.53Q118.79-19.97 123.57-20.02L123.57-20.02Q128.36-19.92 128.41-13.53L128.41-13.53Q128.31-6.88 123.57-6.84L123.57-6.84Q118.74-6.93 118.69-13.53ZM123.62-21.24L123.62-21.24Q119.23-21.24 116.64-18.41L116.64-18.41Q114.78-16.31 114.78-13.48L114.78-13.48Q114.78-9.77 118.4-7.32L118.4-7.32Q118.74-7.08 119.08-6.88L119.08-6.88Q115.96-6.88 115.18-4.2L115.18-4.2Q115.03-3.56 115.03-2.93L115.03-2.93Q115.08-0.34 117.13 0.93L117.13 0.93Q115.52 2.64 115.52 4.39L115.52 4.39Q115.52 7.08 118.69 8.4L118.69 8.4Q120.69 9.28 123.62 9.28L123.62 9.28Q131.04 9.28 133.44 5.66L133.44 5.66Q134.22 4.44 134.22 3.08L134.22 3.08Q134.22-1.12 129.38-1.76L129.38-1.76Q128.75-1.86 128.07-1.86L128.07-1.86 119.18-2.05Q116.93-2.2 116.88-4L116.88-4Q116.88-5.27 118.5-5.62L118.5-5.62Q118.84-5.66 119.23-5.66L119.23-5.66 123.53-5.62Q127.87-5.62 130.46-8.54L130.46-8.54Q132.31-10.64 132.31-13.53L132.31-13.53Q132.27-17.19 129.48-19.38L129.48-19.38Q129.92-20.95 131.14-21.24L131.14-21.24Q131.34-21.29 131.53-21.29L131.53-21.29Q132.22-21.29 133-20.56L133-20.56Q133.53-20.07 133.97-20.07L133.97-20.07Q135.2-20.36 135.39-21.63L135.39-21.63Q135.39-23.14 133.97-23.68L133.97-23.68Q133.44-23.88 132.9-23.88L132.9-23.88Q130.61-23.88 129.19-21.83L129.19-21.83Q128.65-21.04 128.36-20.12L128.36-20.12Q126.16-21.24 123.62-21.24ZM123.62 8.01L123.62 8.01Q118.79 8.01 117.52 5.47L117.52 5.47Q117.18 4.79 117.18 4.1L117.18 4.1Q117.23 2.78 118.35 1.46L118.35 1.46Q119.33 1.66 119.96 1.66L119.96 1.66 127.48 1.76Q131.14 1.81 131.73 3.42L131.73 3.42Q131.87 3.81 131.87 4.39L131.87 4.39Q131.87 6.54 127.87 7.52L127.87 7.52Q125.92 8.01 123.62 8.01ZM141.93-10.4L141.93-10.4Q141.93-17.97 146.08-19.63L146.08-19.63Q147.16-20.02 148.33-20.02L148.33-20.02Q153.75-20.02 154.63-13.18L154.63-13.18Q154.77-12.01 154.77-10.6L154.77-10.6Q154.77-2.39 150.28-0.98L150.28-0.98Q149.4-0.73 148.47-0.73L148.47-0.73Q143.54-0.73 142.27-6.59L142.27-6.59Q141.93-8.3 141.93-10.4ZM148.47-21.24L148.47-21.24Q143.79-21.24 140.66-18.02L140.66-18.02Q137.78-15.04 137.78-10.6L137.78-10.6Q137.78-4.44 142.27-1.37L142.27-1.37Q145.01 0.49 148.33 0.49L148.33 0.49Q153.01 0.49 156.09-2.83L156.09-2.83Q158.92-5.86 158.92-10.4L158.92-10.4Q158.92-16.55 154.38-19.53L154.38-19.53Q151.7-21.24 148.47-21.24Z" opacity="1" transform="matrix(1,0,0,1,0,0)" fill="#398378" class="wordmark-text-0" data-fill-palette-color="primary" id="text-0"></path></svg></g></svg></g></svg></g></svg></g><g></g></svg></g></svg></g></svg></g></svg></g><defs></defs></svg><rect width="375.07953" height="228.99473" fill="none" stroke="none" visibility="hidden"></rect></g></svg></g></svg>